# xmcd CD database file
#
# Track frame offsets:
#	150
#	22285
#	38235
#	58765
#	83643
#	94258
#	114653
#	131748
#	156778
#	178800
#	206180
#	231325
#	246748
#	266055
#
# Disc length: 3745 seconds
#
# Revision: 1
# Processed by: cddbd v1.5.2PL0 Copyright (c) Steve Scherf et al.
# Submitted via: CDex 1.70beta3
#
DISCID=d70e9f0e
DTITLE=GOING UNDER GROUND - COMPLETE SINGLE COLLECTION 1998-2008 Disc.2
DYEAR=2008
DGENRE=JPop
TTITLE0=同じ月を見てた
TTITLE1=アゲハ (altermate version ”アゲハとトカゲ”)
TTITLE2=STAND BY ME
TTITLE3=きらり
TTITLE4=トゥモロウズ　ソング
TTITLE5=Happy Birthday
TTITLE6=VISTA
TTITLE7=ハミングライフ
TTITLE8=胸いっぱい
TTITLE9=TWISTER
TTITLE10=さかさまワールド
TTITLE11=初恋
TTITLE12=My Treasure
TTITLE13=初恋(アコースティック・ヴァージョン)
EXTD=YEAR: 2008
EXTT0=
EXTT1=
EXTT2=
EXTT3=
EXTT4=
EXTT5=
EXTT6=
EXTT7=
EXTT8=
EXTT9=
EXTT10=
EXTT11=
EXTT12=
EXTT13=
PLAYORDER=
